<?xml version="1.0" standalone="no"?><!DOCTYPE svg PUBLIC "-//W3C//DTD SVG 1.1//EN" "http://www.w3.org/Graphics/SVG/1.1/DTD/svg11.dtd"><svg t="1628153511445" class="icon" viewBox="0 0 1024 1024" version="1.1" xmlns="http://www.w3.org/2000/svg" p-id="21436" xmlns:xlink="http://www.w3.org/1999/xlink" width="200" height="200"><defs><style type="text/css"></style></defs><path d="M810.666667 704H298.666667v42.666667h512v42.666666a42.666667 42.666667 0 0 1-42.666667 42.666667H256a42.666667 42.666667 0 0 1-42.666667-42.666667V234.666667a42.666667 42.666667 0 0 1 42.666667-42.666667h512a42.666667 42.666667 0 0 1 42.666667 42.666667v469.333333z m-200.682667-377.536a21.333333 21.333333 0 0 0-30.165333 0l-150.72 150.741333 60.288 60.288 150.741333-150.72a21.333333 21.333333 0 0 0 0-30.186666l-30.144-30.122667zM398.933333 567.637333l75.370667-15.061333-60.288-60.309333-15.082667 75.370666z"  p-id="21437"></path></svg>
